<svg xmlns="http://www.w3.org/2000/svg" enable-background="new 0 0 24 24" viewBox="0 0 24 24" id="nike-logo"><path fill="#FF7A55" d="M3.312,19.004c-0.841,0-1.696-0.243-2.484-0.942c-2.208-1.958,0.451-5.855,2.233-8.004C3.223,9.863,3.504,9.82,3.717,9.957c0.212,0.137,0.29,0.412,0.179,0.639c-0.676,1.389-0.742,2.52-0.184,3.183c0.492,0.586,1.445,0.781,2.43,0.499l17.13-4.621c0.253-0.068,0.514,0.069,0.602,0.315s-0.029,0.518-0.268,0.624C5.402,18.719,5.014,19.004,3.312,19.004z"></path><path fill="#110638" d="M5.064 10.964c-.256-.103-.381-.394-.279-.65l2-5c.089-.223.326-.348.559-.306C7.58 5.054 7.75 5.26 7.75 5.5v2.404l1.036-2.589c.103-.257.395-.382.65-.279.256.103.381.394.279.65l-2 5c-.09.224-.327.349-.559.306C6.92 10.946 6.75 10.74 6.75 10.5V8.096l-1.036 2.589C5.611 10.944 5.318 11.067 5.064 10.964zM9.25 11c-.062 0-.125-.011-.186-.036-.256-.103-.381-.394-.279-.65l2-5c.103-.257.395-.382.65-.279.256.103.381.394.279.65l-2 5C9.636 10.881 9.448 11 9.25 11zM13.104 8.043l2.245-2.185c.198-.193.202-.509.01-.707-.192-.197-.509-.203-.707-.01l-1.587 1.545.4-1.001c.103-.256-.022-.547-.279-.65-.255-.104-.547.022-.65.279l-2 5c-.103.256.022.547.279.65.253.102.547-.021.65-.279l.786-1.966.517 1.911c.06.223.262.37.482.37.33 0 .569-.313.483-.63L13.104 8.043zM18.5 5h-2c-.205 0-.388.125-.464.314l-.996 2.491c0 0 0 0 0 .001l-1.004 2.509C13.904 10.642 14.147 11 14.5 11h2c.276 0 .5-.224.5-.5S16.776 10 16.5 10h-1.262l.6-1.5H17.5C17.776 8.5 18 8.276 18 8s-.224-.5-.5-.5h-1.262l.6-1.5H18.5C18.776 6 19 5.776 19 5.5S18.776 5 18.5 5z"></path></svg>